<?xml version="1.0" encoding="UTF-8"?>
<svg width="1200pt" height="1200pt" version="1.1" viewBox="0 0 1200 1200" xmlns="http://www.w3.org/2000/svg">
 <path d="m312.72 276.84h607.2c33.137 0 60 33.137 60 60v34.801c0 33.137-26.863 60-60 60h-607.2c-33.137 0-60-33.137-60-60v-34.801c0-33.137 26.863-60 60-60z"/>
 <path d="m312.72 522.6h607.2c33.137 0 60 33.137 60 60v34.801c0 33.137-26.863 60-60 60h-607.2c-33.137 0-60-33.137-60-60v-34.801c0-33.137 26.863-60 60-60z"/>
 <path d="m673.92 768.48h246c33.137 0 60 33.137 60 60v34.801c0 33.137-26.863 60-60 60h-246c-33.137 0-60-33.137-60-60v-34.801c0-33.137 26.863-60 60-60z"/>
</svg>
