<?xml version="1.0" encoding="UTF-8"?>
<svg width="1200pt" height="1200pt" version="1.1" viewBox="0 0 1200 1200" xmlns="http://www.w3.org/2000/svg">
 <path d="m1105.2 628.8c-20.398-26.398-56.398-32.398-94.801-16.801-9.6016 3.6016-24 9.6016-40.801 16.801l69.602-190.8c6-16.801 4.8008-34.801-2.3984-50.398-7.1992-15.602-20.398-27.602-37.199-33.602-12-4.8008-25.199-4.8008-37.199-1.1992l8.3984-24c6-16.801 4.8008-34.801-2.3984-50.398-7.1992-15.602-20.398-27.602-37.199-33.602-33.602-12-70.801 6-82.801 38.398-7.1992-9.6016-18-18-30-22.801-33.602-12-70.801 6-84 39.602l-12 33.602c-7.1992-9.6016-18-18-30-21.602-33.602-12-70.801 6-84 40.801l-38.398 108-18-45.602c-6-16.801-19.199-30-34.801-37.199s-32.398-7.1992-48-1.1992c-12 4.8008-21.602 13.199-28.801 22.801l-13.199-32.398c-6-16.801-19.199-30-34.801-37.199-15.602-7.1992-32.398-7.1992-48-1.1992-12 4.8008-21.602 13.199-28.801 22.801-7.1992-15.602-19.199-27.602-34.801-34.801-15.602-7.1992-32.398-7.1992-48-1.1992-32.398 13.199-49.199 51.602-36 85.199l9.6016 24c-12-2.3984-24-2.3984-36 2.3984-32.398 13.199-49.199 51.602-36 85.199l85.199 216-51.602-31.199c-14.398-9.6016-31.199-14.398-46.801-12-16.801 2.3984-32.398 12-42 26.398-20.398 28.801-13.199 69.602 14.398 91.199 10.801 10.801 150 121.2 200.4 157.2 37.199 26.398 82.801 40.801 128.4 40.801 30 0 61.199-6 91.199-18 46.801-19.199 86.398-51.602 112.8-94.801 14.398 9.6016 30 16.801 46.801 22.801 27.602 9.6016 56.398 14.398 85.199 14.398 50.398 0 98.398-15.602 139.2-45.602 50.398-37.199 188.4-152.4 196.8-159.6 27.602-21.598 32.402-63.598 10.801-91.195zm-603.6 326.4c-66 26.398-136.8 19.199-192-19.199-49.203-36-193.2-151.2-194.4-152.4-15.602-12-19.199-34.801-8.3984-51.602 4.8008-7.1992 13.199-13.199 22.801-14.398 9.6016-1.1992 18 1.1992 25.199 6 0 0 1.1992 0 1.1992 1.1992l90 54c4.8008 3.6016 12 2.3984 16.801-1.1992 4.8008-3.6016 6-10.801 3.6016-16.801l-102-256.8c-7.1992-19.199 1.1992-39.602 19.199-46.801 7.1992-2.3984 15.602-2.3984 24 1.1992 8.3984 3.6016 15.602 10.801 20.398 19.199l54 139.2c2.3984 6 8.3984 9.6016 13.199 9.6016 1.1992 0 3.6016 0 4.8008-1.1992 7.1992-2.3984 10.801-12 8.3984-19.199l-52.801-134.4v-1.1992c0-1.1992-1.1992-2.3984-1.1992-3.6016l-28.801-74.398c-7.1992-19.199 1.1992-39.602 19.199-46.801 8.3984-3.6016 18-3.6016 26.398 0 8.3984 3.6016 15.602 10.801 19.199 20.398l19.199 50.398 62.398 162c2.3984 6 8.3984 9.6016 13.199 9.6016 1.1992 0 3.6016 0 4.8008-1.1992 7.1992-2.3984 10.801-12 8.3984-19.199l-60-157.2-1.1992-3.6016c-7.1992-19.199 1.1992-39.602 19.199-46.801 8.3984-3.6016 18-3.6016 26.398 0 8.3984 3.6016 15.602 10.801 19.199 20.398l32.398 81.602c0 1.1992 0 1.1992 1.1992 2.3984l43.199 114c2.3984 7.1992 12 10.801 19.199 8.3984 7.1992-2.3984 10.801-12 8.3984-19.199l-44.398-114c-7.1992-19.199 1.1992-39.602 19.199-46.801 8.3984-3.6016 18-3.6016 26.398 0 8.3984 3.6016 15.602 10.801 19.199 20.398l96 249.6c39.617 112.8-13.18 235.2-121.18 278.4zm573.6-258c-1.1992 1.1992-146.4 121.2-195.6 158.4-54 40.801-128.4 50.398-195.6 26.398-14.398-4.8008-28.801-12-42-20.398 1.1992-2.3984 2.3984-4.8008 3.6016-8.3984 25.199-58.801 27.602-124.8 6-186l-63.598-163.2 49.199-140.4c7.1992-19.199 27.602-28.801 45.602-22.801 8.3984 3.6016 15.602 9.6016 20.398 18 3.6016 8.3984 4.8008 19.199 1.1992 27.602l-43.199 122.4c-2.3984 7.1992 1.1992 15.602 8.3984 19.199 1.1992 0 3.6016 1.1992 4.8008 1.1992 6 0 12-3.6016 14.398-9.6016l43.199-122.4c0-1.1992 0-1.1992 1.1992-2.3984l30-82.801c7.1992-19.199 27.602-28.801 45.602-22.801 8.3984 3.6016 15.602 9.6016 20.398 18 3.6016 8.3984 4.8008 19.199 1.1992 28.801l-1.1992 3.6016-60 174c-2.3984 7.1992 1.1992 15.602 9.6016 19.199 1.1992 0 3.6016 1.1992 4.8008 1.1992 6 0 12-3.6016 14.398-9.6016l62.398-177.6 18-50.398c7.1992-19.199 27.602-28.801 45.602-22.801 8.3984 3.6016 15.602 9.6016 20.398 18 3.6016 8.3984 4.8008 19.199 1.1992 27.602l-26.398 72c-1.1992 2.3984-1.1992 3.6016-2.3984 6 0 1.1992 0 2.3984-1.1992 2.3984l-54 148.8c-2.3984 7.1992 1.1992 15.602 8.3984 19.199 1.1992 0 3.6016 1.1992 4.8008 1.1992 6 0 12-3.6016 14.398-9.6016l56.398-156c8.3984-16.801 28.801-26.398 44.398-20.398 8.3984 3.6016 15.602 9.6016 20.398 18 3.6016 8.3984 4.8008 19.199 1.1992 27.602l-79.199 214.8c-13.199 4.8008-25.199 9.6016-31.199 12-75.602-28.801-116.4 4.8008-150 31.199-6 4.8008-7.1992 14.398-2.3984 20.398s14.398 7.1992 20.398 2.3984c32.398-26.398 62.398-51.602 126-25.199 3.6016 1.1992 7.1992 1.1992 10.801 0 3.6016-1.1992 86.398-33.602 115.2-45.602 15.602-6 44.398-14.398 60 7.1992 13.207 16.805 9.6094 39.605-5.9922 51.605z"/>
 <path d="m256.8 214.8 74.398 48c2.3984 1.1992 4.8008 2.3984 8.3984 2.3984 4.8008 0 9.6016-2.3984 12-7.1992 4.8008-7.1992 2.3984-15.602-4.8008-20.398l-74.398-48c-7.1992-4.8008-15.602-2.3984-20.398 4.8008-4.8008 7.1992-2.3984 15.598 4.8008 20.398z"/>
 <path d="m432 202.8c2.3984 6 7.1992 9.6016 14.398 9.6016 1.1992 0 3.6016 0 4.8008-1.1992 7.1992-2.3984 12-10.801 9.6016-19.199l-40.801-118.8c-2.3984-7.1992-10.801-12-19.199-9.6016-7.1992 2.3984-12 10.801-9.6016 19.199z"/>
 <path d="m561.6 192c1.1992 1.1992 3.6016 1.1992 4.8008 1.1992 6 0 12-3.6016 13.199-9.6016l30-82.801c2.3984-7.1992-1.1992-15.602-8.3984-19.199-7.1992-2.3984-15.602 1.1992-19.199 8.3984l-30 82.801c-2.4023 8.4023 2.3945 16.805 9.5977 19.203z"/>
 <path d="m667.2 1020c-7.1992-2.3984-15.602 2.3984-18 9.6016l-25.199 84c-2.3984 7.1992 2.3984 15.602 9.6016 18 1.1992 0 2.3984 1.1992 4.8008 1.1992 6 0 12-3.6016 14.398-10.801l25.199-84c1.1992-7.1992-2.3984-15.602-10.801-18z"/>
 <path d="m792 998.4c-3.6016-7.1992-12-10.801-19.199-8.3984-7.1992 3.6016-10.801 12-8.3984 19.199l48 116.4c2.3984 6 8.3984 9.6016 13.199 9.6016 2.3984 0 3.6016 0 6-1.1992 7.1992-3.6016 10.801-12 8.3984-19.199z"/>
 <path d="m967.2 969.6-76.801-43.199c-7.1992-3.6016-15.602-1.1992-20.398 6-3.6016 7.1992-1.1992 15.602 6 20.398l76.801 43.199c2.3984 1.1992 4.8008 2.3984 7.1992 2.3984 4.8008 0 9.6016-2.3984 13.199-7.1992 3.6016-8.3984 1.1992-16.801-6-21.598z"/>
</svg>
